<svg width="8069" height="6393" viewBox="0 0 8069 6393" fill="none" xmlns="http://www.w3.org/2000/svg">
<path d="M158.656 46.809C1050.26 655.764 2603.9 235.978 4084.11 116.997C4759.8 30.9951 6152.97 393.548 6448.87 446.315C6744.77 499.082 6251.09 407.311 6896.86 532.264C7542.63 657.218 8345.18 202.999 8345.18 202.999V421.667V5127.33C8934.05 5074.62 2620.41 5230.44 1721.45 5454.99C822.496 5679.55 86.8393 4971.67 86.8393 4971.67C86.8393 4971.67 -732.951 -562.146 158.656 46.809Z" fill="#90A2B0"/>
<path d="M158.656 46.809C1050.26 655.764 2603.9 235.978 4084.11 116.997C4759.8 30.9951 6152.97 393.548 6448.87 446.315C6744.77 499.082 6251.09 407.311 6896.86 532.264C7542.63 657.218 8345.18 202.999 8345.18 202.999V421.667V5127.33C8934.05 5074.62 2620.41 5230.44 1721.45 5454.99C822.496 5679.55 86.8393 4971.67 86.8393 4971.67C86.8393 4971.67 -732.951 -562.146 158.656 46.809Z" fill="#90A2B0"/>
<path d="M8162.45 5942.46C7243.42 5408.6 5711.32 5883.46 4238.48 6069.3C3567.63 6184.2 2178.63 5922.47 1880.63 5886.99C1582.62 5851.5 2060.54 5900.62 1409.71 5813.88C758.878 5727.14 -21.4341 6197.67 -21.4341 6197.67L-31.6705 5990.19L-251.954 1525.29C-837.641 1604.32 5461.03 1145.36 6348.39 887.998C7235.74 630.637 8003.64 1266.05 8003.64 1266.05C8003.64 1266.05 9081.48 6476.32 8162.45 5942.46Z" fill="#90A2B0"/>
<path d="M8162.45 5942.46C7243.42 5408.6 5711.32 5883.46 4238.48 6069.3C3567.63 6184.2 2178.63 5922.47 1880.63 5886.99C1582.62 5851.5 2060.54 5900.62 1409.71 5813.88C758.878 5727.14 -21.4341 6197.67 -21.4341 6197.67L-31.6705 5990.19L-251.954 1525.29C-837.641 1604.32 5461.03 1145.36 6348.39 887.998C7235.74 630.637 8003.64 1266.05 8003.64 1266.05C8003.64 1266.05 9081.48 6476.32 8162.45 5942.46Z" fill="#90A2B0"/>
</svg>
