<svg width="196" height="205" viewBox="0 0 196 205" fill="none" xmlns="http://www.w3.org/2000/svg">
<path d="M98 0C43.904 0 0 45.92 0 102.5C0 159.08 43.904 205 98 205C152.096 205 196 159.08 196 102.5C196 45.92 152.096 0 98 0ZM98 30.75C114.268 30.75 127.4 44.485 127.4 61.5C127.4 78.515 114.268 92.25 98 92.25C81.732 92.25 68.6 78.515 68.6 61.5C68.6 44.485 81.732 30.75 98 30.75ZM98 176.3C86.3562 176.3 74.8934 173.286 64.6337 167.527C54.3741 161.769 45.6364 153.444 39.2 143.295C39.494 122.897 78.4 111.725 98 111.725C117.502 111.725 156.506 122.897 156.8 143.295C150.364 153.444 141.626 161.769 131.366 167.527C121.107 173.286 109.644 176.3 98 176.3Z" fill="black"/>
</svg>
